<?xml version="1.0" standalone="no"?>
<!DOCTYPE svg PUBLIC "-//W3C//DTD SVG 20010904//EN"
 "http://www.w3.org/TR/2001/REC-SVG-20010904/DTD/svg10.dtd">
<svg version="1.0" xmlns="http://www.w3.org/2000/svg"
 width="935.000000pt" height="935.000000pt" viewBox="0 0 935.000000 935.000000"
 preserveAspectRatio="xMidYMid meet">
<metadata>
Created by potrace 1.14, written by Peter Selinger 2001-2017
</metadata>
<g transform="translate(0.000000,935.000000) scale(0.100000,-0.100000)"
fill="#000000" stroke="none">
<path d="M1435 5633 l-120 -4 -159 -697 c-88 -383 -161 -705 -164 -714 -4 -16
5 -18 87 -18 66 0 91 -3 91 -13 0 -7 -56 -255 -124 -552 -68 -297 -122 -542
-119 -545 2 -3 233 -5 511 -5 767 0 933 24 1237 175 341 170 621 468 769 819
25 60 46 111 46 115 0 3 -43 6 -95 6 l-95 0 10 25 c5 13 22 82 37 152 25 114
28 147 27 303 -1 153 -4 187 -26 270 -70 263 -220 455 -443 568 -204 103 -631
136 -1470 115z m783 -649 c198 -41 292 -160 292 -369 0 -85 -36 -292 -64 -372
l-15 -43 94 0 95 0 -21 -52 c-104 -267 -285 -399 -581 -423 -71 -5 -88 -4 -87
7 0 7 24 114 53 238 l52 225 -93 3 c-51 1 -93 5 -93 8 0 4 163 719 177 772 5
19 11 22 60 22 29 0 89 -7 131 -16z"/>
<path d="M4033 5633 l-151 -4 -22 -92 c-11 -50 -85 -371 -164 -712 l-143 -620
95 -3 c91 -3 94 -3 89 -25 -84 -346 -248 -1079 -243 -1084 4 -4 228 -7 499 -8
622 0 807 15 1027 86 390 126 737 420 929 789 41 78 101 214 101 227 0 2 -42
3 -94 3 l-94 0 20 73 c59 224 73 448 39 624 -69 357 -283 595 -616 686 -209
56 -572 74 -1272 60z m773 -653 c254 -65 324 -261 229 -640 -14 -52 -27 -105
-31 -117 -6 -23 -5 -23 86 -23 l92 0 -7 -27 c-11 -45 -74 -164 -116 -221 -67
-88 -169 -159 -284 -195 -92 -29 -285 -49 -285 -29 0 4 22 102 50 217 27 116
52 220 55 233 5 22 4 22 -91 22 -73 0 -95 3 -92 13 3 6 45 186 94 400 l88 387
66 0 c37 0 102 -9 146 -20z"/>
<path d="M7315 5001 c-102 -47 -137 -146 -115 -321 12 -90 11 -100 -6 -136
-12 -26 -34 -47 -62 -63 -58 -31 -54 -55 15 -96 29 -16 57 -41 63 -54 6 -13
16 -75 21 -138 9 -95 8 -129 -6 -215 -19 -112 -16 -192 10 -235 42 -70 155
-120 251 -110 69 7 94 21 94 54 0 23 -3 25 -27 18 -102 -26 -175 -12 -235 43
-37 35 -40 41 -40 92 0 30 5 97 12 148 15 106 9 286 -12 347 -8 25 -28 50 -54
71 l-42 31 28 17 c18 10 35 34 46 62 16 42 17 58 6 168 -17 175 1 231 85 268
38 17 62 19 152 16 102 -3 106 -2 109 18 4 29 -19 34 -148 34 -81 0 -114 -5
-145 -19z"/>
<path d="M8622 5011 c-8 -5 -12 -17 -10 -27 3 -17 16 -19 140 -24 118 -4 139
-8 158 -25 50 -46 55 -68 52 -243 -3 -177 4 -206 54 -238 l25 -17 -30 -18
c-16 -10 -37 -29 -45 -41 -35 -53 -50 -331 -27 -472 15 -86 9 -115 -32 -154
-59 -58 -159 -79 -216 -48 -32 18 -51 10 -51 -21 0 -61 160 -71 260 -17 29 16
64 44 79 63 30 40 32 70 15 246 -8 79 -8 144 0 231 12 134 20 150 87 184 67
35 70 60 8 89 -73 36 -81 69 -65 256 10 108 -1 160 -47 212 -52 59 -94 73
-227 73 -63 0 -121 -4 -128 -9z"/>
<path d="M8433 4275 c-39 -17 -53 -42 -53 -95 0 -137 159 -180 200 -54 23 68
-6 128 -73 153 -35 13 -35 13 -74 -4z m78 -66 c14 -14 19 -30 17 -51 -4 -43
-29 -56 -62 -35 -43 29 -31 105 17 107 4 0 16 -9 28 -21z"/>
<path d="M8053 4258 c-32 -36 -43 -63 -43 -108 0 -56 42 -100 95 -100 52 0
105 53 105 104 0 51 -23 90 -64 110 -46 22 -69 20 -93 -6z m98 -80 c13 -24
-13 -68 -39 -68 -44 0 -59 67 -20 94 24 17 40 9 59 -26z"/>
<path d="M7698 4245 c-37 -21 -58 -64 -58 -120 0 -61 32 -95 89 -95 68 0 122
83 107 165 -4 18 -12 38 -19 44 -23 19 -90 22 -119 6z m66 -51 c35 -13 4 -104
-35 -104 -21 0 -44 44 -33 63 12 21 37 47 45 47 4 0 14 -3 23 -6z"/>
</g>
</svg>
